PathFileType	4	(x/y/z)	S02_PSF_T01
DataRate	CameraRate	NumFrames	NumMarkers	Units	OrigDataRate	OrigDataStartFrame	OrigNumFrames
240	240	8	51	mm	240	1	398
Frame#	Time	Sternum			R.Acromium			L.Acromium			Top.Head			R.ASIS			L.ASIS			R.PSIS			L.PSIS			R.Great.Tro			L.Great.Tro			R.Iliac.Crest			L.Iliac.Crest			V.Sacral			R.Thigh.Upper.Post			R.Thigh.Lower.Ant			R.Thigh.Lower.Post			R.Thigh.Upper.Ant			R.Knee.Lat			R.Knee.Med			R.Shank.Upper.Post			R.Shank.Lower.Ant			R.Shank.Lower.Post			R.Shank.Upper.Ant			R.Ankle.Lat			R.Ankle.Med			R.Heel.Upper			R.Heel.Med			R.Heel.Lat			R.Toe.Lat			R.Toe.Med			R.Toe.Tip			L.Thigh.Upper.Post			L.Thigh.Lower.Ant			L.Thigh.Lower.Post			L.Thigh.Upper.Ant			L.Knee.Lat			L.Knee.Med			L.Shank.Upper.Post			L.Shank.Lower.Ant			L.Shank.Lower.Post			L.Shank.Upper.Ant			L.Ankle.Lat			L.Ankle.Med			L.Heel.Upper			L.Heel.Med			L.Heel.Lat			L.Toe.Lat			L.Toe.Med			L.Toe.Tip			Cervical.Spine			Back			
		X1	Y1	Z1	X2	Y2	Z2	X3	Y3	Z3	X4	Y4	Z4	X5	Y5	Z5	X6	Y6	Z6	X7	Y7	Z7	X8	Y8	Z8	X9	Y9	Z9	X10	Y10	Z10	X11	Y11	Z11	X12	Y12	Z12	X13	Y13	Z13	X14	Y14	Z14	X15	Y15	Z15	X16	Y16	Z16	X17	Y17	Z17	X18	Y18	Z18	X19	Y19	Z19	X20	Y20	Z20	X21	Y21	Z21	X22	Y22	Z22	X23	Y23	Z23	X24	Y24	Z24	X25	Y25	Z25	X26	Y26	Z26	X27	Y27	Z27	X28	Y28	Z28	X29	Y29	Z29	X30	Y30	Z30	X31	Y31	Z31	X32	Y32	Z32	X33	Y33	Z33	X34	Y34	Z34	X35	Y35	Z35	X36	Y36	Z36	X37	Y37	Z37	X38	Y38	Z38	X39	Y39	Z39	X40	Y40	Z40	X41	Y41	Z41	X42	Y42	Z42	X43	Y43	Z43	X44	Y44	Z44	X45	Y45	Z45	X46	Y46	Z46	X47	Y47	Z47	X48	Y48	Z48	X49	Y49	Z49	X50	Y50	Z50	X51	Y51	Z51	

1	0	NaN	NaN	NaN	-1606.3	1302	475.49	-1624.4	1314.6	182.7	-1580.5	1595.4	337.09	NaN	NaN	NaN	NaN	NaN	NaN	-1763.3	945.85	350.22	-1751.3	947.08	276.06	-1663.7	780.91	521.6	-1609.4	785.44	130.73	-1682	947.67	483.89	-1629.9	943.17	148.64	-1787.8	904.56	301.43	NaN	NaN	NaN	NaN	NaN	NaN	-1759.2	521.46	467.65	NaN	NaN	NaN	NaN	NaN	NaN	-1768.8	433.36	306.18	NaN	NaN	NaN	-1873.5	177.02	397.72	NaN	NaN	NaN	NaN	NaN	NaN	-1958.4	114.55	389.53	-1937.7	129.52	307.4	-2021.6	105.8	331.54	-2010.9	72.086	304.08	-2025.2	73.507	366.54	-1844.5	31.646	404.16	-1831.7	40.211	307.33	-1782.4	62.626	363.44	-1552.6	572.87	158.93	-1449.6	536.12	174.55	-1514.9	493.57	185.95	-1495.3	616.02	147.52	-1434.5	458.32	186.39	-1437.6	458.99	328.06	-1437.6	271.22	199.39	NaN	NaN	NaN	-1401.8	204.99	217.76	NaN	NaN	NaN	-1320.6	112.23	224.79	-1299	126.09	309.36	-1357.8	59.201	265.85	-1334	44.609	301.74	-1335.6	30.95	241.37	-1188.4	94.672	198.3	-1171.1	128.02	300.97	-1127.6	165.12	248.46	-1696.6	1374.6	337.11	-1779	1125.3	337.66
2	0.0041667	NaN	NaN	NaN	-1601	1301.4	474.78	-1618.7	1313.8	182.07	-1575.4	1594.8	336.46	NaN	NaN	NaN	NaN	NaN	NaN	-1757.8	945.02	350.09	-1745.9	946.36	275.92	-1658.6	780.06	521.47	-1604	785.12	130.58	-1676.5	946.87	483.76	-1624.4	942.42	148.59	-1782.3	903.75	301.26	NaN	NaN	NaN	NaN	NaN	NaN	-1754.2	520.72	467.57	-1639.7	586.17	478.68	NaN	NaN	NaN	-1763.6	432.42	306.29	NaN	NaN	NaN	-1871.4	177.59	398.05	NaN	NaN	NaN	NaN	NaN	NaN	-1957.1	115.93	389.99	-1936.4	130.92	307.86	-2020.6	108.19	332.08	-2010.1	74.496	304.39	-2024.5	75.751	366.85	-1843.9	31.271	403.84	-1831.7	40.183	307.36	-1785.3	63.961	364.66	-1546.9	572.16	159.12	-1443.8	535.63	174.53	-1509.1	492.98	186.29	-1489.7	615.31	147.39	-1428.6	457.67	186.65	-1431.1	458.91	327.98	-1433.9	270.47	199.78	NaN	NaN	NaN	-1399.1	203.91	218.22	NaN	NaN	NaN	-1319	110.71	225.57	-1297.4	123.85	309.99	-1356.8	58.496	266.45	-1333.2	43.298	302.26	-1335.1	30.277	241.78	-1186.6	91.515	199.4	-1169.6	124.23	302.15	-1125.5	160.91	250.22	-1691.4	1373.8	336.3	-1773.6	1124.5	337.19
3	0.0083333	NaN	NaN	NaN	-1595.6	1300.9	474.05	-1612.8	1312.9	181.39	-1570.1	1594.1	335.8	NaN	NaN	NaN	NaN	NaN	NaN	-1752.1	944.18	349.96	-1740.3	945.64	275.79	-1653.3	779.19	521.32	-1598.4	784.8	130.41	-1670.8	946.05	483.64	-1618.7	941.68	148.53	-1776.5	902.92	301.09	NaN	NaN	NaN	NaN	NaN	NaN	-1748.9	519.95	467.5	-1634.5	585.51	478.9	NaN	NaN	NaN	-1758.1	431.43	306.42	NaN	NaN	NaN	-1869.2	178.2	398.44	NaN	NaN	NaN	NaN	NaN	NaN	-1955.6	117.4	390.49	-1935	132.43	308.39	-2019.4	110.74	332.65	-2009.3	77.087	304.72	-2023.7	78.162	367.18	-1843.3	30.899	403.52	-1831.6	40.161	307.4	-1788.2	65.235	365.86	-1541	571.44	159.3	-1437.8	535.12	174.51	-1503.1	492.37	186.64	-1483.9	614.57	147.27	-1422.6	457	186.93	-1424.5	458.79	327.91	-1430	269.7	200.19	NaN	NaN	NaN	-1396.2	202.81	218.69	NaN	NaN	NaN	-1317.2	109.19	226.38	-1295.8	121.57	310.65	-1355.6	57.844	267.07	-1332.4	42.029	302.78	-1334.5	29.668	242.19	-1184.9	88.274	200.52	-1168	120.31	303.37	-1123.2	156.55	252	-1685.9	1373.1	335.45	-1767.9	1123.7	336.69
4	0.0125	NaN	NaN	NaN	-1590	1300.4	473.3	-1606.6	1312.1	180.69	-1564.6	1593.5	335.13	NaN	NaN	NaN	NaN	NaN	NaN	-1746.1	943.35	349.84	-1734.4	944.92	275.66	-1647.7	778.31	521.17	-1592.5	784.49	130.22	-1664.9	945.24	483.51	-1612.7	940.94	148.47	-1770.6	902.11	300.93	NaN	NaN	NaN	NaN	NaN	NaN	-1743.4	519.16	467.45	-1629	584.83	479.12	NaN	NaN	NaN	-1752.3	430.42	306.57	NaN	NaN	NaN	-1867	178.84	398.91	NaN	NaN	NaN	NaN	NaN	NaN	-1954.1	118.97	391.04	-1933.6	134.03	308.96	-2018.1	113.47	333.25	-2008.3	79.863	305.07	-2022.8	80.743	367.53	-1842.6	30.542	403.21	-1831.6	40.147	307.44	-1791	66.414	367.02	-1535	570.73	159.49	-1431.6	534.57	174.51	-1497	491.77	186.99	-1478	613.83	147.16	-1416.4	456.32	187.22	-1417.8	458.65	327.85	-1426	268.92	200.59	NaN	NaN	NaN	-1393.1	201.72	219.17	NaN	NaN	NaN	-1315.4	107.68	227.2	-1294	119.3	311.32	-1354.3	57.267	267.7	-1331.5	40.83	303.29	-1334	29.146	242.61	-1183.1	84.982	201.64	-1166.3	116.29	304.6	-1120.9	152.06	253.79	-1680.3	1372.3	334.56	-1762	1122.9	336.16
5	0.016667	NaN	NaN	NaN	-1584.3	1299.9	472.53	-1600.3	1311.2	179.95	-1559	1592.9	334.43	NaN	NaN	NaN	NaN	NaN	NaN	-1739.9	942.54	349.72	-1728.4	944.22	275.53	-1642	777.42	521.01	-1586.4	784.19	130.02	-1658.7	944.43	483.38	-1606.6	940.22	148.39	-1764.4	901.31	300.78	NaN	NaN	NaN	NaN	NaN	NaN	-1737.6	518.33	467.4	-1623.2	584.15	479.34	NaN	NaN	NaN	-1746.3	429.37	306.75	NaN	NaN	NaN	-1864.6	179.53	399.45	NaN	NaN	NaN	NaN	NaN	NaN	-1952.4	120.64	391.63	-1932	135.74	309.6	-2016.6	116.36	333.9	-2007.2	82.829	305.45	-2021.7	83.497	367.91	-1842.1	30.211	402.91	-1831.6	40.146	307.5	-1793.7	67.466	368.12	-1528.8	570.04	159.68	-1425.3	534	174.53	-1490.8	491.17	187.35	-1471.8	613.07	147.06	-1410.1	455.62	187.53	-1411	458.47	327.8	-1421.7	268.15	201	NaN	NaN	NaN	-1389.9	200.65	219.65	NaN	NaN	NaN	-1313.4	106.21	228.02	-1292.2	117.06	312.01	-1353	56.785	268.33	-1330.7	39.727	303.8	-1333.3	28.73	243.01	-1181.2	81.672	202.76	-1164.5	112.2	305.83	-1118.4	147.48	255.56	-1674.5	1371.6	333.63	-1755.9	1122	335.61
6	0.020833	NaN	NaN	NaN	-1578.5	1299.5	471.75	-1593.8	1310.4	179.19	-1553.3	1592.3	333.73	NaN	NaN	NaN	NaN	NaN	NaN	-1733.6	941.76	349.62	-1722.2	943.54	275.42	-1636.1	776.55	520.83	-1580.1	783.9	129.8	-1652.3	943.63	483.26	-1600.3	939.54	148.29	-1758.1	900.54	300.65	NaN	NaN	NaN	NaN	NaN	NaN	-1731.5	517.48	467.39	-1617.3	583.46	479.57	NaN	NaN	NaN	-1740.1	428.31	306.96	NaN	NaN	NaN	-1862.2	180.27	400.07	NaN	NaN	NaN	NaN	NaN	NaN	-1950.6	122.42	392.26	-1930.3	137.54	310.3	-2015	119.43	334.58	-2006	85.989	305.86	-2020.6	86.43	368.31	-1841.5	29.918	402.64	-1831.5	40.163	307.57	-1796.3	68.359	369.13	-1522.5	569.38	159.87	-1418.9	533.41	174.56	-1484.5	490.59	187.7	-1465.6	612.32	146.97	-1403.7	454.92	187.84	-1404.2	458.27	327.76	-1417.4	267.4	201.4	NaN	NaN	NaN	-1386.6	199.62	220.12	NaN	NaN	NaN	-1311.4	104.8	228.85	-1290.3	114.88	312.71	-1351.5	56.412	268.96	-1329.8	38.737	304.28	-1332.7	28.432	243.4	-1179.4	78.37	203.86	-1162.7	108.07	307.04	-1115.8	142.85	257.29	-1668.6	1370.9	332.68	-1749.6	1121.2	335.03
7	0.025	NaN	NaN	NaN	-1572.7	1299.1	470.96	-1587.3	1309.6	178.39	-1547.4	1591.7	333.01	NaN	NaN	NaN	NaN	NaN	NaN	-1727.1	941.01	349.52	-1715.8	942.9	275.31	-1630	775.68	520.64	-1573.6	783.64	129.57	-1645.8	942.87	483.14	-1593.9	938.91	148.18	-1751.7	899.81	300.53	NaN	NaN	NaN	NaN	NaN	NaN	-1725.3	516.62	467.39	-1611.1	582.78	479.79	NaN	NaN	NaN	-1733.8	427.23	307.21	NaN	NaN	NaN	-1859.7	181.06	400.78	NaN	NaN	NaN	NaN	NaN	NaN	-1948.7	124.31	392.93	-1928.5	139.45	311.07	-2013.2	122.67	335.3	-2004.6	89.351	306.29	-2019.3	89.55	368.74	-1841	29.677	402.39	-1831.5	40.203	307.64	-1798.6	69.065	370.05	-1516.1	568.75	160.05	-1412.5	532.81	174.61	-1478.2	490.04	188.03	-1459.3	611.59	146.89	-1397.3	454.22	188.16	-1397.4	458.03	327.73	-1412.9	266.69	201.78	NaN	NaN	NaN	-1383.2	198.64	220.58	NaN	NaN	NaN	-1309.2	103.46	229.67	-1288.3	112.77	313.4	-1350	56.157	269.58	-1329	37.877	304.75	-1332	28.261	243.78	-1177.6	75.101	204.93	-1160.8	103.93	308.24	-1113.2	138.17	258.96	-1662.6	1370.2	331.69	-1743.3	1120.4	334.43
8	0.029167	NaN	NaN	NaN	-1566.8	1298.8	470.17	-1580.6	1308.8	177.58	-1541.6	1591.3	332.28	NaN	NaN	NaN	NaN	NaN	NaN	-1720.6	940.32	349.44	-1709.4	942.3	275.22	-1623.8	774.83	520.44	-1567.1	783.4	129.31	-1639.1	942.14	483.02	-1587.3	938.33	148.04	-1745.1	899.12	300.43	NaN	NaN	NaN	NaN	NaN	NaN	-1718.8	515.73	467.43	-1604.7	582.11	480.01	NaN	NaN	NaN	-1727.2	426.13	307.51	NaN	NaN	NaN	-1857.1	181.9	401.58	NaN	NaN	NaN	NaN	NaN	NaN	-1946.7	126.31	393.64	-1926.5	141.46	311.91	-2011.2	126.1	336.07	-2003	92.918	306.76	-2017.8	92.863	369.21	-1840.5	29.501	402.19	-1831.5	40.274	307.74	-1800.8	69.566	370.86	-1509.7	568.18	160.22	-1406	532.21	174.67	-1472	489.52	188.36	-1452.9	610.89	146.83	-1390.9	453.56	188.48	-1390.7	457.77	327.72	-1408.4	266.02	202.15	NaN	NaN	NaN	-1379.7	197.74	221.03	-1337.6	277.31	191.15	-1307	102.21	230.46	-1286.3	110.75	314.09	-1348.4	56.024	270.18	-1328.1	37.152	305.18	-1331.3	28.217	244.14	-1175.8	71.887	205.95	-1159	99.805	309.4	-1110.6	133.49	260.55	-1656.5	1369.6	330.69	-1736.8	1119.7	333.8
